<?xml version="1.0" encoding="UTF-8" standalone="no"?>
<!-- Uploaded to: SVG Repo, www.svgrepo.com, Generator: SVG Repo Mixer Tools -->

<svg
   version="1.1"
   id="Layer_1"
   viewBox="0 0 189.82332 56.698696"
   xml:space="preserve"
   sodipodi:docname="logo.svg"
   inkscape:export-filename="favicon.ico"
   inkscape:export-xdpi="3.375"
   inkscape:export-ydpi="3.375"
   width="189.82332"
   height="56.698696"
   inkscape:version="1.2.2 (732a01da63, 2022-12-09)"
   xmlns:inkscape="http://www.inkscape.org/namespaces/inkscape"
   xmlns:sodipodi="http://sodipodi.sourceforge.net/DTD/sodipodi-0.dtd"
   xmlns="http://www.w3.org/2000/svg"
   xmlns:svg="http://www.w3.org/2000/svg"><defs
   id="defs67" /><sodipodi:namedview
   id="namedview65"
   pagecolor="#ffffff"
   bordercolor="#000000"
   borderopacity="0.25"
   inkscape:showpageshadow="2"
   inkscape:pageopacity="0.0"
   inkscape:pagecheckerboard="0"
   inkscape:deskcolor="#d1d1d1"
   showgrid="false"
   inkscape:zoom="4.4415145"
   inkscape:cx="77.338484"
   inkscape:cy="28.931573"
   inkscape:window-width="1920"
   inkscape:window-height="991"
   inkscape:window-x="-9"
   inkscape:window-y="30"
   inkscape:window-maximized="1"
   inkscape:current-layer="Layer_1" />











<g
   id="g676"
   inkscape:label="pot"
   transform="matrix(0.11073964,0,0,0.11073964,-1.0860236,0)"><rect
     x="168.44501"
     y="412.267"
     style="fill:#aa8b65"
     width="173.46001"
     height="99.733002"
     id="rect2" /><path
     style="fill:#3eac92"
     d="m 312.127,292.149 c 10.88,-28.608 18.982,-61.79 18.982,-97.175 C 331.11,87.293 256.073,0 256.073,0 c 0,0 -75.037,87.293 -75.037,194.974 0,35.55 8.179,68.878 19.136,97.576 v 116.399 l 55.39,26.313 60.026,-30.32 z"
     id="path4" /><path
     style="fill:#7cd8a4"
     d="m 180.329,269.671 c 68.004,68.004 75.745,170.521 75.745,170.521 0,0 -102.517,-7.739 -170.521,-75.745 C 17.549,296.441 9.807,193.926 9.807,193.926 c 0,0 102.518,7.741 170.522,75.745 z"
     id="path6" /><g
     id="g16">
	<path
   style="fill:#266659"
   d="m 256.073,447.729 c -1.928,0 -3.858,-0.736 -5.329,-2.207 L 36.395,231.173 c -2.943,-2.944 -2.943,-7.715 0,-10.659 2.943,-2.942 7.715,-2.942 10.658,0 l 214.349,214.348 c 2.943,2.944 2.943,7.715 0,10.659 -1.471,1.471 -3.4,2.208 -5.329,2.208 z"
   id="path8" />
	<path
   style="fill:#266659"
   d="m 149.788,341.443 h -42.325 c -4.162,0 -7.537,-3.373 -7.537,-7.537 0,-4.163 3.374,-7.536 7.537,-7.536 h 34.789 v -34.787 c 0,-4.163 3.374,-7.536 7.536,-7.536 4.162,0 7.536,3.373 7.536,7.536 v 42.324 c 10e-4,4.163 -3.374,7.536 -7.536,7.536 z"
   id="path10" />
	<path
   style="fill:#266659"
   d="m 188.242,379.899 h -42.324 c -4.162,0 -7.537,-3.373 -7.537,-7.536 0,-4.163 3.374,-7.536 7.537,-7.536 h 34.787 v -34.789 c 0,-4.163 3.374,-7.536 7.537,-7.536 4.163,0 7.536,3.373 7.536,7.536 v 42.325 c 0.001,4.163 -3.374,7.536 -7.536,7.536 z"
   id="path12" />
	<path
   style="fill:#266659"
   d="M 111.327,302.983 H 69.002 c -4.162,0 -7.537,-3.373 -7.537,-7.536 0,-4.163 3.374,-7.536 7.537,-7.536 h 34.789 v -34.788 c 0,-4.163 3.374,-7.536 7.537,-7.536 4.162,0 7.536,3.373 7.536,7.536 v 42.324 c -0.001,4.162 -3.375,7.536 -7.537,7.536 z"
   id="path14" />
</g><path
     style="fill:#7cd8a4"
     d="m 426.448,364.448 c -68.004,68.004 -170.521,75.745 -170.521,75.745 0,0 7.739,-102.517 75.745,-170.521 68.006,-68.004 170.521,-75.745 170.521,-75.745 0,0 -7.74,102.517 -75.745,170.521 z"
     id="path18" /><g
     id="g28">
	<path
   style="fill:#266659"
   d="m 255.926,447.729 c -1.928,0 -3.858,-0.736 -5.329,-2.207 -2.943,-2.944 -2.943,-7.715 0,-10.659 L 460.464,224.997 c 2.943,-2.942 7.715,-2.942 10.658,0 2.943,2.944 2.943,7.715 0,10.659 L 261.255,445.522 c -1.471,1.47 -3.4,2.207 -5.329,2.207 z"
   id="path20" />
	<path
   style="fill:#266659"
   d="m 404.536,341.443 h -42.325 c -4.162,0 -7.537,-3.373 -7.537,-7.537 v -42.324 c 0,-4.163 3.374,-7.536 7.537,-7.536 4.162,0 7.536,3.373 7.536,7.536 v 34.787 h 34.788 c 4.162,0 7.537,3.373 7.537,7.536 0,4.165 -3.374,7.538 -7.536,7.538 z"
   id="path22" />
	<path
   style="fill:#266659"
   d="m 366.081,379.899 h -42.324 c -4.162,0 -7.536,-3.373 -7.536,-7.536 v -42.325 c 0,-4.163 3.374,-7.536 7.536,-7.536 4.162,0 7.536,3.373 7.536,7.536 v 34.789 h 34.788 c 4.162,0 7.536,3.373 7.536,7.536 0,4.163 -3.374,7.536 -7.536,7.536 z"
   id="path24" />
	<path
   style="fill:#266659"
   d="m 442.997,302.983 h -42.325 c -4.162,0 -7.536,-3.373 -7.536,-7.536 v -42.324 c 0,-4.163 3.374,-7.536 7.536,-7.536 4.162,0 7.536,3.373 7.536,7.536 v 34.788 h 34.789 c 4.162,0 7.536,3.373 7.536,7.536 0,4.163 -3.374,7.536 -7.536,7.536 z"
   id="path26" />
</g><path
     style="fill:#7cd8a4"
     d="m 392.308,236.992 c -28.687,41.604 -80.933,55.34 -80.933,55.34 0,0 -5.736,-53.717 22.95,-95.321 28.686,-41.604 80.933,-55.34 80.933,-55.34 0,0 5.736,53.717 -22.95,95.321 z"
     id="path30" /><g
     id="g36">
	<path
   style="fill:#266659"
   d="m 328.606,275.133 c -1.475,0 -2.965,-0.432 -4.271,-1.332 -3.427,-2.363 -4.29,-7.056 -1.926,-10.484 l 68.805,-100.19 c 2.362,-3.425 7.055,-4.29 10.483,-1.926 3.428,2.364 4.29,7.056 1.926,10.484 l -68.805,100.19 c -1.463,2.118 -3.817,3.258 -6.212,3.258 z"
   id="path32" />
	<path
   style="fill:#266659"
   d="m 356.2,234.847 c -3.566,0 -6.736,-2.541 -7.404,-6.176 l -4.019,-21.874 c -0.753,-4.094 1.956,-8.022 6.05,-8.774 4.094,-0.746 8.022,1.956 8.774,6.05 l 2.658,14.461 14.462,-2.658 c 4.096,-0.746 8.022,1.956 8.774,6.05 0.753,4.094 -1.956,8.022 -6.05,8.774 l -21.874,4.019 c -0.461,0.087 -0.919,0.128 -1.371,0.128 z"
   id="path34" />
</g><path
     style="fill:#7cd8a4"
     d="m 120.692,237.621 c 28.687,41.604 80.933,55.34 80.933,55.34 0,0 5.736,-53.717 -22.95,-95.321 -28.686,-41.604 -80.933,-55.34 -80.933,-55.34 0,0 -5.737,53.717 22.95,95.321 z"
     id="path38" /><g
     id="g52">
	<path
   style="fill:#266659"
   d="m 183.548,277.13 c -2.395,0 -4.749,-1.139 -6.211,-3.259 l -64.378,-96.145 c -2.363,-3.427 -1.5,-8.12 1.926,-10.484 3.428,-2.361 8.12,-1.5 10.483,1.926 l 64.378,96.145 c 2.363,3.427 1.5,8.12 -1.926,10.484 -1.307,0.9 -2.797,1.333 -4.272,1.333 z"
   id="path40" />
	<path
   style="fill:#266659"
   d="m 156.799,235.476 c -0.452,0 -0.91,-0.04 -1.371,-0.125 l -21.874,-4.019 c -4.094,-0.753 -6.803,-4.681 -6.05,-8.775 0.753,-4.093 4.683,-6.801 8.774,-6.05 l 14.462,2.658 2.658,-14.461 c 0.753,-4.094 4.688,-6.799 8.774,-6.05 4.094,0.753 6.803,4.681 6.05,8.775 l -4.019,21.874 c -0.668,3.63 -3.838,6.173 -7.404,6.173 z"
   id="path42" />
	<path
   style="fill:#266659"
   d="m 256.073,434.862 c -4.162,0 -7.536,-3.394 -7.536,-7.583 V 34.954 c 0,-4.188 3.374,-7.583 7.536,-7.583 4.162,0 7.537,3.394 7.537,7.583 V 427.28 c -0.001,4.188 -3.375,7.582 -7.537,7.582 z"
   id="path44" />
	<path
   style="fill:#266659"
   d="m 256.073,229.188 c -1.999,0 -3.916,-0.794 -5.329,-2.207 l -33.509,-33.51 c -2.943,-2.944 -2.943,-7.715 0,-10.659 2.943,-2.942 7.715,-2.942 10.658,0 l 28.18,28.182 28.18,-28.182 c 2.943,-2.942 7.715,-2.942 10.658,0 2.943,2.944 2.943,7.715 0,10.659 l -33.509,33.51 c -1.413,1.413 -3.33,2.207 -5.329,2.207 z"
   id="path46" />
	<path
   style="fill:#266659"
   d="m 256.073,290.08 c -1.999,0 -3.916,-0.794 -5.329,-2.207 l -33.509,-33.51 c -2.943,-2.944 -2.943,-7.715 0,-10.659 2.943,-2.942 7.715,-2.942 10.658,0 l 28.18,28.182 28.18,-28.182 c 2.943,-2.942 7.715,-2.942 10.658,0 2.943,2.944 2.943,7.715 0,10.659 l -33.509,33.51 c -1.413,1.413 -3.33,2.207 -5.329,2.207 z"
   id="path48" />
	<path
   style="fill:#266659"
   d="m 256.073,168.287 c -1.928,0 -3.858,-0.736 -5.329,-2.207 l -33.509,-33.509 c -2.943,-2.944 -2.943,-7.715 0,-10.659 2.943,-2.942 7.715,-2.942 10.658,0 l 28.18,28.18 28.18,-28.18 c 2.943,-2.942 7.715,-2.942 10.658,0 2.943,2.944 2.943,7.715 0,10.659 l -33.509,33.509 c -1.471,1.472 -3.4,2.207 -5.329,2.207 z"
   id="path50" />
</g><g
     id="g58">
	<polyline
   style="fill:#836948"
   points="341.865,482.117 168.403,455.818 168.477,440.586 341.905,467.193  "
   id="polyline54" />
	<polygon
   style="fill:#836948"
   points="317.547,511.962 341.865,511.962 341.865,500.355 168.403,474.448 168.403,489.676 "
   id="polygon56" />
</g><g
     style="opacity:0.21"
     id="g62">
	<path
   style="fill:#266659"
   d="m 400.939,222.166 c 18.799,-38.489 14.319,-80.495 14.319,-80.495 0,0 -37.863,9.96 -66.823,38.59 -12.648,89.188 -48.237,204.494 -145.938,249.387 17.214,4.909 31.833,7.618 41.428,9.055 l 5.901,5.901 c 0.232,0.32 0.483,0.63 0.772,0.918 1.471,1.471 3.4,2.207 5.329,2.207 0.024,0 0.049,-0.003 0.073,-0.003 0.024,0 0.049,0.003 0.073,0.003 1.928,0 3.858,-0.736 5.329,-2.207 0.288,-0.288 0.54,-0.599 0.772,-0.918 l 5.901,-5.901 c 29.127,-4.363 104.552,-20.434 158.373,-74.255 68.004,-68.004 75.745,-170.522 75.745,-170.522 0,0 -48.713,3.681 -101.254,28.24 z"
   id="path60" />
</g></g>
<text
   xml:space="preserve"
   style="font-weight:bold;font-size:45.3137px;font-family:'Palatino Linotype';-inkscape-font-specification:'Palatino Linotype Bold';fill:#000000;fill-opacity:1;stroke-width:0.397579;stroke-linecap:round;stroke-linejoin:round;stroke-opacity:0.894118;paint-order:markers fill stroke"
   x="62.666161"
   y="45.659546"
   id="text732"><tspan
     sodipodi:role="line"
     id="tspan730"
     x="62.666161"
     y="45.659546"
     style="font-size:45.3137px;fill:#ffffff;fill-opacity:1;stroke-width:0.397579">GAPP</tspan></text></svg>
